<?xml version="1.0" encoding="utf-8"?>
<svg version="1.1" xmlns:xlink="http://www.w3.org/1999/xlink" width="43px" height="43px" xmlns="http://www.w3.org/2000/svg">
  <g transform="matrix(1 0 0 1 -51 -190 )">
    <path d="M 72.5 190  C 84.53999999999999 190  94 199.46  94 211.5  C 94 223.54  84.53999999999999 233  72.5 233  C 60.46 233  51 223.54  51 211.5  C 51 199.46  60.46 190  72.5 190  Z " fill-rule="nonzero" fill="#ffffff" stroke="none" />
    <path d="M 72.5 190.5  C 84.25999999999999 190.5  93.5 199.74  93.5 211.5  C 93.5 223.26  84.25999999999999 232.5  72.5 232.5  C 60.739999999999995 232.5  51.5 223.26  51.5 211.5  C 51.5 199.74  60.739999999999995 190.5  72.5 190.5  Z " stroke-width="1" stroke="#797979" fill="none" />
  </g>
</svg>