<?xml version="1.0" encoding="utf-8"?>
<svg version="1.1" xmlns:xlink="http://www.w3.org/1999/xlink" width="6px" height="10px" xmlns="http://www.w3.org/2000/svg">
  <g transform="matrix(1 0 0 1 -348 -176 )">
    <path d="M 5.706219257462408 0.5894141223623672  C 5.77135413157248 0.6549045804026112  5.803921568627402 0.7302186071489091  5.803921568627402 0.8153562026013172  C 5.803921568627402 0.900493798053612  5.77135413157248 0.9758078247999097  5.706219257462408 1.0412982828401538  L 1.866518428677409 4.901960784313673  L 5.706219257462408 8.762623285787193  C 5.77135413157248 8.828113743827437  5.803921568627402 8.903427770573792  5.803921568627402 8.988565366026144  C 5.803921568627402 9.073702961478439  5.77135413157248 9.149016988224735  5.706219257462408 9.214507446265037  L 5.217707701637323 9.705685881566982  C 5.152572827527365 9.771176339607281  5.077667722300816 9.803921568627404  4.992992385957791 9.803921568627404  C 4.908317049614766 9.803921568627404  4.833411944388331 9.771176339607281  4.768277070278259 9.705685881566982  L 0.21534936998864393 5.127902864552567  C 0.15021449587857205 5.062412406512323  0.1176470588235361 4.987098379766081  0.1176470588235361 4.901960784313673  C 0.1176470588235361 4.816823188861379  0.15021449587857205 4.741509162115081  0.21534936998864393 4.67601870407478  L 4.768277070278259 0.09823568706042296  C 4.833411944388331 0.03274522902012204  4.908317049614766 0  4.992992385957791 0  C 5.077667722300816 0  5.152572827527365 0.03274522902012204  5.217707701637323 0.09823568706042296  L 5.706219257462408 0.5894141223623672  Z " fill-rule="nonzero" fill="#cccccc" stroke="none" fill-opacity="0.9882352941176471" transform="matrix(1 0 0 1 348 176 )" />
  </g>
</svg>