<?xml version="1.0" encoding="utf-8"?>
<svg version="1.1" xmlns:xlink="http://www.w3.org/1999/xlink" width="22px" height="20px" xmlns="http://www.w3.org/2000/svg">
  <g transform="matrix(1 0 0 1 -61 -256 )">
    <path d="M 17.00000000000003 12  L 19.000000000000018 12  L 19.000000000000018 15  L 22 15  L 22 17  L 19.000000000000018 17  L 19.000000000000018 20  L 17.00000000000003 20  L 17.00000000000003 17  L 14.000000000000048 17  L 14.000000000000048 15  L 17.00000000000003 15  L 17.00000000000003 12  Z M 0.992000000000124 0  L 19.00800000000002 0  C 19.55600000000001 0  20.00000000000001 0.44499999999999984  20.00000000000001 0.9929999999999999  L 20.00000000000001 10.342  C 19.35763254274107 10.115095822806792  18.68126436766641 9.999436864869025  18.00000000000002 10  L 18.00000000000002 2  L 2 2  L 2 16  L 11.293000000000065 6.707000000000001  C 11.64881112447475 6.350025195790858  12.214809115192542 6.314007141836088  12.613000000000056 6.623000000000001  L 12.706000000000055 6.708000000000002  L 16.252000000000034 10.258000000000003  C 13.725326032391603 11.02792632887799  11.998795377381548 13.358942658721237  11.998795377381548 16.00031879446748  C 11.998795377381548 16.681859789713858  12.114855862070796 17.358424192172013  12.342000000000057 18  L 0.9920000000001242 18  C 0.4439718083566327 17.999448108288558  0 17.555028469534594  0 17.007  L 0 0.9929999999999999  C 0.003807823113219455 0.4465555438690352  0.44555965783284635 0.004358394799889531  0.992000000000124 0  Z M 6.000000000000095 4  C 7.104569499661675 4  8.000000000000083 4.8954305003384135  8.000000000000083 6  C 8.000000000000083 7.1045694996615865  7.104569499661675 8  6.000000000000095 8  C 4.895430500338515 8  4.000000000000107 7.1045694996615865  4.000000000000107 6  C 4.000000000000107 4.8954305003384135  4.895430500338515 4  6.000000000000095 4  Z " fill-rule="nonzero" fill="#999999" stroke="none" fill-opacity="0.9882352941176471" transform="matrix(1 0 0 1 61 256 )" />
  </g>
</svg>