<?xml version="1.0" encoding="utf-8"?>
<svg version="1.1" xmlns:xlink="http://www.w3.org/1999/xlink" width="14px" height="16px" xmlns="http://www.w3.org/2000/svg">
  <g transform="matrix(1 0 0 1 -339 -138 )">
    <path d="M 1.55555555555555 11.061728395061714  L 2.6553333333333455 11.061728395061714  L 10.543555555555542 3.0482962962962827  L 9.443777777777797 1.9310617283950553  L 1.55555555555555 9.944493827160487  L 1.55555555555555 11.061728395061714  Z M 12.193999999999981 3.606913580246909  L 3.300111111111107 12.641975308641982  L 0 12.641975308641982  L 0 9.289481481481491  L 8.893888888888874 0.2544197530864191  C 9.197610995600101 -0.05403017349757041  9.689944559955492 -0.05403017349757041  9.99366666666667 0.2544197530864191  L 12.193999999999981 2.4896790123456816  C 12.49763039648112 2.7982221048776714  12.49763039648112 3.2983704877149194  12.193999999999981 3.606913580246909  Z M 0 15.802469135802463  L 0 14  L 14 14  L 14 15.802469135802463  L 0 15.802469135802463  Z " fill-rule="nonzero" fill="#f68c95" stroke="none" transform="matrix(1 0 0 1 339 138 )" />
  </g>
</svg>