<?xml version="1.0" encoding="utf-8"?>
<svg version="1.1" xmlns:xlink="http://www.w3.org/1999/xlink" width="30px" height="30px" xmlns="http://www.w3.org/2000/svg">
  <g transform="matrix(1 0 0 1 -25 -80 )">
    <path d="M 40 80  C 48.400000000000006 80  55 86.6  55 95  C 55 103.4  48.400000000000006 110  40 110  C 31.6 110  25 103.4  25 95  C 25 86.6  31.6 80  40 80  Z " fill-rule="nonzero" fill="#ffffff" stroke="none" />
    <path d="M 40 80.5  C 48.120000000000005 80.5  54.5 86.88  54.5 95  C 54.5 103.12  48.120000000000005 109.5  40 109.5  C 31.88 109.5  25.5 103.12  25.5 95  C 25.5 86.88  31.88 80.5  40 80.5  Z " stroke-width="1" stroke="#797979" fill="none" />
  </g>
</svg>