<?xml version="1.0" encoding="utf-8"?>
<svg version="1.1" xmlns:xlink="http://www.w3.org/1999/xlink" width="349px" height="131px" xmlns="http://www.w3.org/2000/svg">
  <g transform="matrix(1 0 0 1 -13 -80 )">
    <path d="M 13 80  L 362 80  L 362 211  L 13 211  L 13 80  " fill-rule="nonzero" fill="#cccccc" stroke="none" />
    <path d="M 22 89  L 353 89  L 353 202  L 22 202  L 22 89  " fill-rule="nonzero" fill="#ffffff" stroke="none" />
    <path d="M 204.305 119.30000000000001  C 198.80300000000003 119.30000000000001  194.48000000000002 114.977  194.48000000000002 109.47500000000001  C 194.48000000000002 103.97300000000001  198.80300000000003 99.65  204.305 99.65  C 209.80700000000002 99.65  214.13000000000002 103.97300000000001  214.13000000000002 109.47500000000001  C 214.13000000000002 114.977  209.80700000000002 119.30000000000001  204.305 119.30000000000001  " fill-rule="nonzero" fill="#cccccc" stroke="none" />
    <path d="M 26 199  L 26 140.7  L 107 114.19999999999999  L 220.4 175.1272206303725  L 285.2 130.1  L 350 175.1272206303725  L 350 199  L 26 199  " fill-rule="nonzero" fill="#169bd5" stroke="none" />
  </g>
</svg>