<?xml version="1.0" encoding="utf-8"?>
<svg version="1.1" xmlns:xlink="http://www.w3.org/1999/xlink" width="126px" height="88px" xmlns="http://www.w3.org/2000/svg">
  <g transform="matrix(1 0 0 1 -570 -568 )">
    <path d="M 570 568  L 696 568  L 696 656  L 570 656  L 570 568  " fill-rule="nonzero" fill="#cccccc" stroke="none" />
    <path d="M 576 574  L 690 574  L 690 650  L 576 650  L 576 574  " fill-rule="nonzero" fill="#ffffff" stroke="none" />
    <path d="M 642.12 594.4000000000001  C 638.424 594.4000000000001  635.52 591.4960000000001  635.52 587.8000000000001  C 635.52 584.104  638.424 581.2  642.12 581.2  C 645.816 581.2  648.72 584.104  648.72 587.8000000000001  C 648.72 591.4960000000001  645.816 594.4000000000001  642.12 594.4000000000001  " fill-rule="nonzero" fill="#cccccc" stroke="none" />
    <path d="M 578 648  L 578 608.4  L 605.5 590.4  L 644 617.8285714285714  L 666 601.2  L 688 617.8285714285714  L 688 648  L 578 648  " fill-rule="nonzero" fill="#169bd5" stroke="none" />
  </g>
</svg>