<?xml version="1.0" encoding="utf-8"?>
<svg version="1.1" xmlns:xlink="http://www.w3.org/1999/xlink" width="92px" height="88px" xmlns="http://www.w3.org/2000/svg">
  <g transform="matrix(1 0 0 1 -21 -332 )">
    <path d="M 21 332  L 113 332  L 113 420  L 21 420  L 21 332  " fill-rule="nonzero" fill="#cccccc" stroke="none" />
    <path d="M 27 338  L 107 338  L 107 414  L 27 414  L 27 338  " fill-rule="nonzero" fill="#ffffff" stroke="none" />
    <path d="M 75.44 358.4  C 71.744 358.4  68.84 355.496  68.84 351.79999999999995  C 68.84 348.104  71.744 345.2  75.44 345.2  C 79.136 345.2  82.04 348.104  82.04 351.79999999999995  C 82.04 355.496  79.136 358.4  75.44 358.4  " fill-rule="nonzero" fill="#cccccc" stroke="none" />
    <path d="M 29 412  L 29 372.4  L 48 354.4  L 74.6 370.67826086956524  L 89.80000000000001 365.2  L 105 370.67826086956524  L 105 412  L 29 412  " fill-rule="nonzero" fill="#169bd5" stroke="none" />
  </g>
</svg>