<?xml version="1.0" encoding="utf-8"?>
<svg version="1.1" xmlns:xlink="http://www.w3.org/1999/xlink" width="154px" height="88px" xmlns="http://www.w3.org/2000/svg">
  <g transform="matrix(1 0 0 1 -29 -77 )">
    <path d="M 29 77  L 183 77  L 183 165  L 29 165  L 29 77  " fill-rule="nonzero" fill="#cccccc" stroke="none" />
    <path d="M 35 83  L 177 83  L 177 159  L 35 159  L 35 83  " fill-rule="nonzero" fill="#ffffff" stroke="none" />
    <path d="M 115.68 103.4  C 111.98400000000001 103.4  109.08 100.49600000000001  109.08 96.80000000000001  C 109.08 93.10400000000001  111.98400000000001 90.2  115.68 90.2  C 119.376 90.2  122.28 93.10400000000001  122.28 96.80000000000001  C 122.28 100.49600000000001  119.376 103.4  115.68 103.4  " fill-rule="nonzero" fill="#cccccc" stroke="none" />
    <path d="M 37 157  L 37 117.4  L 71.5 99.4  L 119.8 132.31428571428572  L 147.4 110.19999999999999  L 175 132.31428571428572  L 175 157  L 37 157  " fill-rule="nonzero" fill="#169bd5" stroke="none" />
  </g>
</svg>