<?xml version="1.0" encoding="utf-8"?>
<svg version="1.1" xmlns:xlink="http://www.w3.org/1999/xlink" width="18px" height="17px" xmlns="http://www.w3.org/2000/svg">
  <g transform="matrix(1 0 0 1 -1368 -57 )">
    <path d="M 16.2 8.947368421052632  C 16.2 4.994172317000636  12.976450198781711 1.789473684210526  9 1.789473684210526  C 5.023549801218287 1.789473684210526  1.8 4.994172317000636  1.8 8.947368421052632  L 4.5 8.947368421052632  C 5.494112549695427 8.947368421052632  6.3 9.74854307925016  6.3 10.736842105263158  L 6.3 15.210526315789474  C 6.3 16.198825341802472  5.494112549695427 17  4.5 17  L 1.8 17  C 0.8058874503045718 17  0 16.198825341802472  0 15.210526315789474  L 0 8.947368421052632  C 0 4.0057368421052635  4.0293 0  9 0  C 13.9707 0  18 4.0057368421052635  18 8.947368421052632  L 18 15.210526315789474  C 18 16.198825341802472  17.194112549695426 17  16.2 17  L 13.5 17  C 12.505887450304572 17  11.700000000000001 16.198825341802472  11.700000000000001 15.210526315789474  L 11.700000000000001 10.736842105263158  C 11.700000000000001 9.74854307925016  12.505887450304572 8.947368421052632  13.5 8.947368421052632  L 16.2 8.947368421052632  Z M 4.5 10.736842105263158  L 1.8 10.736842105263158  L 1.8 15.210526315789474  L 4.5 15.210526315789474  L 4.5 10.736842105263158  Z M 16.2 10.736842105263158  L 13.5 10.736842105263158  L 13.5 15.210526315789474  L 16.2 15.210526315789474  L 16.2 10.736842105263158  Z " fill-rule="nonzero" fill="#333333" stroke="none" transform="matrix(1 0 0 1 1368 57 )" />
  </g>
</svg>