<?xml version="1.0" encoding="utf-8"?>
<svg version="1.1" xmlns:xlink="http://www.w3.org/1999/xlink" width="335px" height="141px" xmlns="http://www.w3.org/2000/svg">
  <g transform="matrix(1 0 0 1 -1051 -151 )">
    <path d="M 1052 163  A 11 11 0 0 1 1063 152 L 1374 152  A 11 11 0 0 1 1385 163 L 1385 280  A 11 11 0 0 1 1374 291 L 1063 291  A 11 11 0 0 1 1052 280 L 1052 163  Z " fill-rule="nonzero" fill="#ffffff" stroke="none" />
    <path d="M 1051.5 163  A 11.5 11.5 0 0 1 1063 151.5 L 1374 151.5  A 11.5 11.5 0 0 1 1385.5 163 L 1385.5 280  A 11.5 11.5 0 0 1 1374 291.5 L 1063 291.5  A 11.5 11.5 0 0 1 1051.5 280 L 1051.5 163  Z " stroke-width="1" stroke="#f2f2f2" fill="none" stroke-opacity="0.9882352941176471" />
  </g>
</svg>