<?xml version="1.0" encoding="utf-8"?>
<svg version="1.1" xmlns:xlink="http://www.w3.org/1999/xlink" width="335px" height="193px" xmlns="http://www.w3.org/2000/svg">
  <g transform="matrix(1 0 0 1 -1051 -308 )">
    <path d="M 1052 320  A 11 11 0 0 1 1063 309 L 1374 309  A 11 11 0 0 1 1385 320 L 1385 489  A 11 11 0 0 1 1374 500 L 1063 500  A 11 11 0 0 1 1052 489 L 1052 320  Z " fill-rule="nonzero" fill="#ffffff" stroke="none" />
    <path d="M 1051.5 320  A 11.5 11.5 0 0 1 1063 308.5 L 1374 308.5  A 11.5 11.5 0 0 1 1385.5 320 L 1385.5 489  A 11.5 11.5 0 0 1 1374 500.5 L 1063 500.5  A 11.5 11.5 0 0 1 1051.5 489 L 1051.5 320  Z " stroke-width="1" stroke="#f2f2f2" fill="none" stroke-opacity="0.9882352941176471" />
  </g>
</svg>