<svg t="1610604664431" class="icon" viewBox="0 0 1024 1024" version="1.1" xmlns="http://www.w3.org/2000/svg" p-id="1117" width="200" height="200"><path d="M819.2 539.58656V768H562.3808v-73.85088h174.81728v-84.2752H562.3808V381.68576h174.7968v-77.4144H562.3808V230.4H819.2v228.18816h-174.7968v77.35296H819.2v3.64544z m-588.8 0V768h256.77824v-73.85088h-174.7968v-84.2752h174.7968V381.68576h-174.7968v-77.4144h174.7968V230.4H230.4v228.18816h174.7968v77.35296H230.4v3.64544z" fill="#E60012" p-id="1118"></path><path d="M512 0C229.21216 0 0 229.21216 0 512c0 282.80832 229.21216 512 512 512 282.80832 0 512-229.19168 512-512C1024 229.21216 794.80832 0 512 0z m0 922.46016C285.30688 922.46016 101.56032 738.69312 101.56032 512 101.56032 285.32736 285.32736 101.49888 512 101.49888s410.43968 183.76704 410.43968 410.5216c0 226.73408-183.76704 410.4192-410.43968 410.4192z" fill="#E60012" p-id="1119"></path></svg>