<?xml version="1.0" encoding="utf-8"?>
<svg version="1.1" xmlns:xlink="http://www.w3.org/1999/xlink" width="12px" height="20px" xmlns="http://www.w3.org/2000/svg">
  <g transform="matrix(1 0 0 1 -345 -450 )">
    <path d="M 11.79381443298969 9.539078156312627  C 11.931271477663232 9.672678690714761  12 9.82631930527722  12 10  C 12 10.173680694722778  11.931271477663232 10.327321309285235  11.79381443298969 10.460921843687373  L 2.185567010309278 19.799599198396795  C 2.0481099656357387 19.933199732798933  1.8900343642611683 20  1.711340206185567 20  C 1.532646048109966 20  1.3745704467353952 19.933199732798933  1.2371134020618557 19.799599198396795  L 0.2061855670103093 18.79759519038076  C 0.0687285223367698 18.663994655978623  0 18.510354041416164  0 18.336673346693388  C 0 18.162992651970605  0.0687285223367698 18.00935203740815  0.2061855670103093 17.87575150300601  L 8.309278350515463 10  L 0.2061855670103093 2.124248496993988  C 0.0687285223367698 1.9906479625918494  0 1.8370073480293914  0 1.6633266533066138  C 0 1.4896459585838318  0.0687285223367698 1.3360053440213737  0.2061855670103093 1.2024048096192375  L 1.2371134020618557 0.2004008016032066  C 1.3745704467353952 0.06680026720106813  1.532646048109966 0  1.711340206185567 0  C 1.8900343642611683 0  2.0481099656357387 0.06680026720106813  2.185567010309278 0.2004008016032066  L 11.79381443298969 9.539078156312627  Z " fill-rule="nonzero" fill="#7f7f7f" stroke="none" transform="matrix(1 0 0 1 345 450 )" />
  </g>
</svg>