<?xml version="1.0" encoding="utf-8"?>
<svg version="1.1" xmlns:xlink="http://www.w3.org/1999/xlink" width="19px" height="18px" xmlns="http://www.w3.org/2000/svg">
  <g transform="matrix(1 0 0 1 -341 -19 )">
    <path d="M 16.45429362880884 9.141274238227084  C 16.45429362880884 5.102405153591917  13.18014332286225 1.8282548476453258  9.14127423822714 1.8282548476453258  C 5.102405153591974 1.8282548476453258  1.8282548476454394 5.102405153591917  1.8282548476454394 9.141274238227084  L 4.570637119113542 9.141274238227084  C 5.580354390272362 9.141274238227084  6.398891966758981 9.959811814713703  6.398891966758981 10.969529085872637  L 6.398891966758981 15.540166204986235  C 6.398891966758981 16.549883476144828  5.580354390272362 17.36842105263156  4.570637119113542 17.36842105263156  L 1.8282548476454394 17.36842105263156  C 0.8185375764866194 17.36842105263156  0 16.549883476144828  0 15.540166204986235  L 0 9.141274238227084  C 0 4.09254847645434  4.092548476454226 0  9.14127423822714 0  C 14.189999999999998 0  18.28254847645428 4.09254847645434  18.28254847645428 9.141274238227084  L 18.28254847645428 15.540166204986235  C 18.28254847645428 16.549883476144828  17.464010899967604 17.36842105263156  16.45429362880884 17.36842105263156  L 13.711911357340739 17.36842105263156  C 12.702194086181976 17.36842105263156  11.883656509695243 16.549883476144828  11.883656509695243 15.540166204986235  L 11.883656509695243 10.969529085872637  C 11.883656509695243 9.959811814713703  12.702194086181976 9.141274238227084  13.711911357340739 9.141274238227084  L 16.45429362880884 9.141274238227084  Z M 4.570637119113542 10.969529085872637  L 1.8282548476454394 10.969529085872637  L 1.8282548476454394 15.540166204986235  L 4.570637119113542 15.540166204986235  L 4.570637119113542 10.969529085872637  Z M 16.45429362880884 10.969529085872637  L 13.711911357340739 10.969529085872637  L 13.711911357340739 15.540166204986235  L 16.45429362880884 15.540166204986235  L 16.45429362880884 10.969529085872637  Z " fill-rule="nonzero" fill="#666ee8" stroke="none" fill-opacity="0.8980392156862745" transform="matrix(1 0 0 1 341 19 )" />
  </g>
</svg>